<svg width="422" height="197" xmlns="http://www.w3.org/2000/svg" xmlns:xlink="http://www.w3.org/1999/xlink" overflow="hidden"><defs><clipPath id="clip0"><path d="M456 213 878 213 878 410 456 410Z" fill-rule="evenodd" clip-rule="evenodd"/></clipPath></defs><g clip-path="url(#clip0)" transform="translate(-456 -213)"><path d="M465.5 312C465.5 307.858 468.858 304.5 473 304.5 477.142 304.5 480.5 307.858 480.5 312 480.5 316.142 477.142 319.5 473 319.5 468.858 319.5 465.5 316.142 465.5 312Z" stroke="#2F528F" stroke-miterlimit="8" fill="#8FAADC" fill-rule="evenodd"/><path d="M595.5 249.5C595.5 245.082 598.858 241.5 603 241.5 607.142 241.5 610.5 245.082 610.5 249.5 610.5 253.918 607.142 257.5 603 257.5 598.858 257.5 595.5 253.918 595.5 249.5Z" stroke="#2F528F" stroke-miterlimit="8" fill="#8FAADC" fill-rule="evenodd"/><path d="M595.5 368C595.5 363.858 598.858 360.5 603 360.5 607.142 360.5 610.5 363.858 610.5 368 610.5 372.142 607.142 375.5 603 375.5 598.858 375.5 595.5 372.142 595.5 368Z" stroke="#2F528F" stroke-miterlimit="8" fill="#8FAADC" fill-rule="evenodd"/><path d="M724.5 249.5C724.5 245.082 728.082 241.5 732.5 241.5 736.918 241.5 740.5 245.082 740.5 249.5 740.5 253.918 736.918 257.5 732.5 257.5 728.082 257.5 724.5 253.918 724.5 249.5Z" stroke="#2F528F" stroke-miterlimit="8" fill="#8FAADC" fill-rule="evenodd"/><path d="M854.5 249.5C854.5 245.082 857.858 241.5 862 241.5 866.142 241.5 869.5 245.082 869.5 249.5 869.5 253.918 866.142 257.5 862 257.5 857.858 257.5 854.5 253.918 854.5 249.5Z" stroke="#2F528F" stroke-miterlimit="8" fill="#8FAADC" fill-rule="evenodd"/><path d="M0.2401-0.438579 108.873 59.0323 108.392 59.9094-0.2401 0.438579ZM109.384 55.3219 114.48 62.6721 105.542 62.3392Z" fill="#4472C4" transform="matrix(1 0 0 -1 480.5 312.172)"/><path d="M610.5 248 717.48 248 717.48 251 610.5 251ZM715.98 245 724.98 249.5 715.98 254Z"/><path d="M740.5 249 848.313 249 848.313 250 740.5 250ZM846.98 245.5 854.98 249.5 846.98 253.5Z" fill="#4472C4"/><path d="M480.72 312.051 589.21 365.065 588.771 365.964 480.281 312.949ZM589.548 361.335 594.98 368.441 586.036 368.523Z" fill="#4472C4"/><text font-family="DengXian,DengXian_MSFontService,sans-serif" font-weight="700" font-size="16" transform="translate(466.44 295)">A<tspan x="129.6" y="-61">B</tspan><tspan x="259.2" y="-61">D</tspan><tspan x="388.16" y="-61">E</tspan><tspan x="129.6" y="100">C</tspan><tspan font-weight="400" x="60.5801" y="-20">N</tspan><tspan font-weight="400" x="60.5801" y="63">N</tspan><tspan font-weight="400" x="186.84" y="-30">SN</tspan><tspan font-weight="400" x="321.5" y="-30">S</tspan></text></g></svg>