<svg width="560" height="476" xmlns="http://www.w3.org/2000/svg" xmlns:xlink="http://www.w3.org/1999/xlink" overflow="hidden"><defs><clipPath id="clip0"><path d="M71 176 631 176 631 652 71 652Z" fill-rule="evenodd" clip-rule="evenodd"/></clipPath><clipPath id="clip1"><path d="M187 166 254 166 254 324 187 324Z" fill-rule="evenodd" clip-rule="evenodd"/></clipPath></defs><g clip-path="url(#clip0)" transform="translate(-71 -176)"><path d="M465.5 312C465.5 307.858 468.858 304.5 473 304.5 477.142 304.5 480.5 307.858 480.5 312 480.5 316.142 477.142 319.5 473 319.5 468.858 319.5 465.5 316.142 465.5 312Z" stroke="#2F528F" stroke-miterlimit="8" fill="#8FAADC" fill-rule="evenodd"/><path d="M595.5 249.5C595.5 245.082 598.858 241.5 603 241.5 607.142 241.5 610.5 245.082 610.5 249.5 610.5 253.918 607.142 257.5 603 257.5 598.858 257.5 595.5 253.918 595.5 249.5Z" stroke="#2F528F" stroke-miterlimit="8" fill="#8FAADC" fill-rule="evenodd"/><path d="M595.5 368C595.5 363.858 598.858 360.5 603 360.5 607.142 360.5 610.5 363.858 610.5 368 610.5 372.142 607.142 375.5 603 375.5 598.858 375.5 595.5 372.142 595.5 368Z" stroke="#2F528F" stroke-miterlimit="8" fill="#8FAADC" fill-rule="evenodd"/><path d="M0.2401-0.438579 108.873 59.0323 108.392 59.9094-0.2401 0.438579ZM109.384 55.3219 114.48 62.6721 105.542 62.3392Z" fill="#4472C4" transform="matrix(1 0 0 -1 480.5 312.172)"/><path d="M480.72 312.051 589.21 365.065 588.771 365.964 480.281 312.949ZM589.548 361.335 594.98 368.441 586.036 368.523Z" fill="#4472C4"/><text font-family="DengXian,DengXian_MSFontService,sans-serif" font-weight="700" font-size="19" transform="translate(466.44 297)">A<tspan x="129.6" y="-61">B</tspan><tspan x="129.6" y="100">C</tspan><tspan font-weight="400" font-size="16" x="60.5801" y="-22">N</tspan><tspan font-weight="400" font-size="16" x="60.5801" y="61">N</tspan></text><path d="M253.783 228.006 253.783 385.072" stroke="#FFFFFF" stroke-width="1.33333" stroke-linejoin="round" stroke-miterlimit="10" fill="none" fill-rule="evenodd"/><path d="M320.047 228.006 320.047 385.072" stroke="#FFFFFF" stroke-width="1.33333" stroke-linejoin="round" stroke-miterlimit="10" fill="none" fill-rule="evenodd"/><path d="M186.853 267.606 386.977 267.606" stroke="#000000" stroke-width="1.33333" stroke-linejoin="round" stroke-miterlimit="10" fill="none" fill-rule="evenodd"/><path d="M186.853 306.539 386.977 306.539" stroke="#FFFFFF" stroke-width="1.33333" stroke-linejoin="round" stroke-miterlimit="10" fill="none" fill-rule="evenodd"/><path d="M186.853 345.472 386.977 345.472" stroke="#FFFFFF" stroke-width="1.33333" stroke-linejoin="round" stroke-miterlimit="10" fill="none" fill-rule="evenodd"/><path d="M187.52 228.006 187.52 385.072" stroke="#FFFFFF" stroke-width="1.33333" stroke-linejoin="round" stroke-miterlimit="10" fill="none" fill-rule="evenodd"/><path d="M386.31 228.006 386.31 385.072" stroke="#FFFFFF" stroke-width="1.33333" stroke-linejoin="round" stroke-miterlimit="10" fill="none" fill-rule="evenodd"/><path d="M186.853 228.672 386.977 228.672" stroke="#000000" stroke-width="1.33333" stroke-linejoin="round" stroke-miterlimit="10" fill="none" fill-rule="evenodd"/><path d="M186.853 384.406 386.977 384.406" stroke="#000000" stroke-width="1.33333" stroke-linejoin="round" stroke-miterlimit="10" fill="none" fill-rule="evenodd"/><g clip-path="url(#clip1)"><text font-family="DengXian,DengXian_MSFontService,sans-serif" font-weight="700" font-size="19" transform="translate(197.235 250)">Index</text></g><text font-family="DengXian,DengXian_MSFontService,sans-serif" font-weight="700" font-size="19" transform="translate(272.915 250)">Act<tspan x="59.7635" y="0">Type</tspan><tspan font-weight="400" x="-57.1801" y="39">1</tspan><tspan font-weight="400" x="8.08334" y="39">A</tspan><tspan font-weight="400" x="74.8468" y="39">X</tspan><tspan font-weight="400" x="-57.1801" y="78">2</tspan><tspan font-weight="400" x="8.08334" y="78">A</tspan><tspan font-weight="400" x="74.8468" y="78">X</tspan><tspan font-weight="400" x="-57.1801" y="117">3</tspan><tspan font-weight="400" x="8.08334" y="117">A</tspan><tspan font-weight="400" x="75.1801" y="117">Y</tspan></text><path d="M410.5 307.941 420.941 307.941 420.941 297.5 430.059 297.5 430.059 307.941 440.5 307.941 440.5 316.059 430.059 316.059 430.059 326.5 420.941 326.5 420.941 316.059 410.5 316.059Z" stroke="#2F528F" stroke-miterlimit="8" fill="#4472C4" fill-rule="evenodd"/><text font-family="DengXian,DengXian_MSFontService,sans-serif" font-weight="400" font-size="21" transform="translate(217.905 203)">Attribute Table<tspan x="256.975" y="0">Casual Graph</tspan></text><path d="M390.5 523C390.5 518.858 393.858 515.5 398 515.5L458 515.5C462.142 515.5 465.5 518.858 465.5 523L465.5 553C465.5 557.142 462.142 560.5 458 560.5L398 560.5C393.858 560.5 390.5 557.142 390.5 553Z" stroke="#2F528F" stroke-miterlimit="8" fill="#BDD7EE" fill-rule="evenodd"/><text font-family="DengXian,DengXian_MSFontService,sans-serif" font-weight="400" font-size="19" transform="translate(408.426 544)">Type</text><path d="M262.5 618C262.5 614.41 265.41 611.5 269 611.5L355 611.5C358.59 611.5 361.5 614.41 361.5 618L361.5 644C361.5 647.59 358.59 650.5 355 650.5L269 650.5C265.41 650.5 262.5 647.59 262.5 644Z" stroke="#2F528F" stroke-miterlimit="8" fill="#BDD7EE" fill-rule="evenodd"/><text font-family="Cambria Math,Cambria Math_MSFontService,sans-serif" font-weight="400" font-size="19" transform="translate(274.296 637)">ğ´<tspan x="17.2" y="0">â†’</tspan><tspan font-size="14" x="32.3333" y="3">ğ‘†ğ‘</tspan><tspan x="56.4467" y="0">ğµ</tspan></text><path d="M489.5 618C489.5 614.41 492.41 611.5 496 611.5L582 611.5C585.59 611.5 588.5 614.41 588.5 618L588.5 644C588.5 647.59 585.59 650.5 582 650.5L496 650.5C492.41 650.5 489.5 647.59 489.5 644Z" stroke="#2F528F" stroke-miterlimit="8" fill="#BDD7EE" fill-rule="evenodd"/><text font-family="Cambria Math,Cambria Math_MSFontService,sans-serif" font-weight="400" font-size="19" transform="translate(501.72 637)">ğ´<tspan x="17.2" y="0">â†’</tspan><tspan font-size="14" x="32.3333" y="3">ğ‘†ğ‘</tspan><tspan x="56.4467" y="0">ğ¶</tspan></text><path d="M0.029609-0.499123 7.43175-0.0600125 14.8571 1.19852 22.0937 3.14927 29.2004 5.91645 36.0519 9.24791 42.5896 13.2083 48.8104 17.7325 54.5923 22.6974 59.9336 28.1643 64.774 33.9477 68.9869 40.1099 72.635 46.5255 75.5313 53.1366 77.6747 59.9449 78.891 67.0837 77.9052 67.2517 76.6946 60.1465 76.7106 60.2126 74.5856 53.4626 74.6045 53.5131 71.7295 46.9506 71.7529 46.9972 68.1279 40.6222 68.1497 40.6572 63.9622 34.5322 63.9916 34.5709 59.1791 28.8209 59.2049 28.8494 53.8924 23.4119 53.9243 23.4418 48.1743 18.5043 48.2059 18.5294 42.0184 14.0294 42.0534 14.0527 35.5534 10.1152 35.5939 10.1372 28.7814 6.82466 28.8186 6.84092 21.7561 4.09092 21.8074 4.10777 14.6199 2.17027 14.6664 2.18047 7.29145 0.930469 7.34539 0.936623-0.029609 0.499123ZM82.2771 65.5151 78.9375 73.8125 74.3033 66.1624Z" fill="#4472C4" transform="matrix(-1 -8.74228e-08 -8.74228e-08 1 391.38 538.5)"/><path d="M465.532 538.001 472.436 538.44 479.302 539.7 486.104 541.653 492.713 544.422 499.065 547.756 505.166 551.718 510.949 556.243 516.355 561.21 521.321 566.679 525.784 572.462 529.746 578.624 533.079 585.04 535.785 591.646 537.802 598.453 538.909 605.59 537.921 605.743 536.818 598.639 536.833 598.705 534.833 591.955 534.85 592.002 532.162 585.44 532.181 585.481 528.869 579.106 528.892 579.145 524.954 573.02 524.979 573.056 520.542 567.306 520.567 567.336 515.63 561.899 515.662 561.931 510.287 556.993 510.317 557.019 504.567 552.519 504.603 552.544 498.54 548.607 498.58 548.63 492.268 545.318 492.307 545.336 485.744 542.586 485.8 542.606 479.05 540.668 479.097 540.679 472.285 539.429 472.343 539.437 465.468 538.999ZM542.298 604.023 538.938 612.313 534.322 604.651Z" fill="#4472C4"/><text font-family="Cambria Math,Cambria Math_MSFontService,sans-serif" font-weight="400" font-size="19" transform="translate(242.723 571)">ğ‘‡ğ‘¦ğ‘ğ‘’<tspan x="46.9333" y="0">=</tspan><tspan x="66.12" y="0">ğ‘‹</tspan><tspan x="289.933" y="0">ğ‘‡ğ‘¦ğ‘ğ‘’</tspan><tspan x="336.866" y="0">=</tspan><tspan x="356.053" y="0">ğ‘Œ</tspan></text><path d="M438.5 422.5 438.5 440.09 451.5 440.09 425.5 463.5 399.5 440.09 412.5 440.09 412.5 422.5Z" stroke="#2F528F" stroke-miterlimit="8" fill="#4472C4" fill-rule="evenodd"/><text font-family="DengXian,DengXian_MSFontService,sans-serif" font-weight="400" font-size="21" transform="translate(360.559 499)">Decision Tree<tspan font-weight="700" x="-257.751" y="-191">Input:</tspan><tspan font-weight="700" x="-275.59" y="73">Output:</tspan></text></g></svg>