<svg width="593" height="259" xmlns="http://www.w3.org/2000/svg" xmlns:xlink="http://www.w3.org/1999/xlink" overflow="hidden"><defs><clipPath id="clip0"><path d="M175 254 768 254 768 513 175 513Z" fill-rule="evenodd" clip-rule="evenodd"/></clipPath></defs><g clip-path="url(#clip0)" transform="translate(-175 -254)"><path d="M398.5 264C398.5 259.858 401.858 256.5 406 256.5L521 256.5C525.142 256.5 528.5 259.858 528.5 264L528.5 294C528.5 298.142 525.142 301.5 521 301.5L406 301.5C401.858 301.5 398.5 298.142 398.5 294Z" stroke="#2F528F" stroke-miterlimit="8" fill="#BDD7EE" fill-rule="evenodd"/><text font-family="Cambria Math,Cambria Math_MSFontService,sans-serif" font-weight="400" font-size="19" transform="translate(411.422 284)">ğ´<tspan x="12.0133" y="0">.</tspan><tspan x="18.96" y="0">ğ‘‡ğ‘¦ğ‘ğ‘’</tspan><tspan x="65.8933" y="0">=</tspan><tspan x="85.08" y="0">ğ‘‹</tspan></text><path d="M398.5 423C398.5 418.858 401.858 415.5 406 415.5L521 415.5C525.142 415.5 528.5 418.858 528.5 423L528.5 453C528.5 457.142 525.142 460.5 521 460.5L406 460.5C401.858 460.5 398.5 457.142 398.5 453Z" stroke="#2F528F" stroke-miterlimit="8" fill="#BDD7EE" fill-rule="evenodd"/><text font-family="Cambria Math,Cambria Math_MSFontService,sans-serif" font-weight="400" font-size="19" transform="translate(411.838 443)">ğ´<tspan x="12.0133" y="0">.</tspan><tspan x="18.96" y="0">ğ‘‡ğ‘¦ğ‘ğ‘’</tspan><tspan x="65.8933" y="0">=</tspan><tspan x="85.08" y="0">ğ‘Œ</tspan></text><path d="M623.5 264C623.5 259.858 626.858 256.5 631 256.5L759 256.5C763.142 256.5 766.5 259.858 766.5 264L766.5 294C766.5 298.142 763.142 301.5 759 301.5L631 301.5C626.858 301.5 623.5 298.142 623.5 294Z" stroke="#2F528F" stroke-miterlimit="8" fill="#BDD7EE" fill-rule="evenodd"/><text font-family="DengXian,DengXian_MSFontService,sans-serif" font-weight="400" font-size="19" transform="translate(637.213 284)">Path: <tspan font-family="Cambria Math,Cambria Math_MSFontService,sans-serif" x="45.3333" y="0">ğ´</tspan><tspan font-family="Cambria Math,Cambria Math_MSFontService,sans-serif" x="62.5333" y="0">â†’</tspan><tspan font-family="Cambria Math,Cambria Math_MSFontService,sans-serif" font-size="14" x="77.6667" y="4">ğ‘†ğ‘</tspan><tspan font-family="Cambria Math,Cambria Math_MSFontService,sans-serif" x="101.78" y="0">ğµ</tspan></text><path d="M624.5 423C624.5 418.858 627.858 415.5 632 415.5L760 415.5C764.142 415.5 767.5 418.858 767.5 423L767.5 453C767.5 457.142 764.142 460.5 760 460.5L632 460.5C627.858 460.5 624.5 457.142 624.5 453Z" stroke="#2F528F" stroke-miterlimit="8" fill="#BDD7EE" fill-rule="evenodd"/><text font-family="DengXian,DengXian_MSFontService,sans-serif" font-weight="400" font-size="19" transform="translate(638.635 443)">Path: <tspan font-family="Cambria Math,Cambria Math_MSFontService,sans-serif" x="45.3333" y="0">ğ´</tspan><tspan font-family="Cambria Math,Cambria Math_MSFontService,sans-serif" x="62.5333" y="0">â†’</tspan><tspan font-family="Cambria Math,Cambria Math_MSFontService,sans-serif" font-size="14" x="77.6666" y="4">ğ‘†ğ‘</tspan><tspan font-family="Cambria Math,Cambria Math_MSFontService,sans-serif" x="101.78" y="0">ğ¶</tspan></text><path d="M528.5 278 617.289 278 617.289 279 528.5 279ZM615.955 274.5 623.955 278.5 615.955 282.5Z" fill="#4472C4"/><path d="M528.5 437 618.288 437 618.288 438 528.5 438ZM616.954 433.5 624.954 437.5 616.954 441.5Z" fill="#4472C4"/><path d="M251.001 360.202 251.189 356.361 251.824 352.493 252.899 348.633 254.353 344.779 256.182 340.994 258.33 337.203 263.741 329.904 270.467 322.802 278.315 316.021 287.287 309.558 297.195 303.601 307.974 298.087 319.504 293.073 331.658 288.751 344.374 284.992 357.529 282.048 370.997 279.793 384.717 278.477 391.82 278.219 391.856 279.218 384.768 279.476 384.798 279.474 371.11 280.786 371.145 280.782 357.708 283.032 357.734 283.027 344.609 285.964 344.642 285.956 331.954 289.706 331.98 289.697 319.855 294.01 319.887 293.997 308.387 298.997 308.415 298.984 297.665 304.484 297.695 304.467 287.82 310.405 287.855 310.382 278.917 316.819 278.952 316.792 271.139 323.542 271.176 323.508 264.488 330.57 264.527 330.524 259.152 337.774 259.185 337.723 257.06 341.473 257.075 341.444 255.263 345.194 255.28 345.153 253.843 348.965 253.857 348.923 252.794 352.736 252.806 352.682 252.181 356.495 252.187 356.438 251.999 360.251ZM390.36 274.77 398.5 278.476 390.651 282.764Z" fill="#4472C4"/><path d="M0.027735-0.49923 3.43382-0.310003 6.93276 0.326169 10.3626 1.40592 13.7182 2.86213 17.1306 4.69471 20.4221 6.84684 26.9684 12.2601 33.2568 18.9888 39.285 26.8379 44.9942 35.8095 50.3234 45.7155 55.2118 56.4952 59.5971 68.0224 63.4807 80.1742 66.7374 92.8877 69.4303 106.039 71.3719 119.505 72.5618 133.22 72.7877 140.321 71.7882 140.353 71.5628 133.266 71.5644 133.293 70.3769 119.606 70.3801 119.634 68.4426 106.196 68.4477 106.225 65.7602 93.1003 65.7656 93.1241 62.5156 80.4366 62.5237 80.4647 58.6487 68.3397 58.6577 68.3653 54.2827 56.8653 54.2946 56.894 49.4196 46.144 49.4347 46.1744 44.1222 36.2994 44.1407 36.3309 38.4532 27.3934 38.4785 27.4295 32.4785 19.617 32.5097 19.6539 26.2597 12.9664 26.3064 13.0103 19.8064 7.63532 19.8514 7.66848 16.6014 5.54348 16.6384 5.5655 13.2634 3.753 13.301 3.77117 9.98845 2.33367 10.0374 2.35192 6.66236 1.28942 6.72306 1.30443 3.28556 0.679435 3.34727 0.68673-0.027735 0.49923ZM76.2436 138.877 72.5 147 68.2476 139.131Z" fill="#4472C4" transform="matrix(-4.37114e-08 1 1 4.37114e-08 251.5 365.5)"/><path d="M176.5 345.167C176.5 340.933 179.933 337.5 184.167 337.5L243.833 337.5C248.067 337.5 251.5 340.933 251.5 345.167L251.5 375.833C251.5 380.068 248.067 383.5 243.833 383.5L184.167 383.5C179.933 383.5 176.5 380.068 176.5 375.833Z" stroke="#2F528F" stroke-miterlimit="8" fill="#BDD7EE" fill-rule="evenodd"/><text font-family="DengXian,DengXian_MSFontService,sans-serif" font-weight="400" font-size="19" transform="translate(203.601 366)">All<tspan x="443.366" y="-33">(Leaf Node)</tspan><tspan x="444.365" y="130">(Leaf Node)</tspan></text></g></svg>